<svg width="76" height="209" viewBox="0 0 76 209" fill="none" xmlns="http://www.w3.org/2000/svg">
<path d="M20.6812 56.4862C20.1434 58.2483 19.5364 59.9999 19.0785 61.7829C18.0455 65.842 17.3426 70.006 16.0221 73.9706C14.5098 78.5174 12.4971 82.9121 10.6547 87.3488C8.5834 92.3203 7.34274 97.4492 7.09247 102.846C7.0126 104.618 6.44286 106.454 5.72402 108.1C4.63245 110.597 4.48335 113.056 5.07972 115.647C5.24479 116.36 5.32999 117.115 5.29804 117.844C5.28206 118.201 4.9892 118.746 4.69634 118.846C4.38218 118.956 3.73257 118.772 3.54087 118.5C1.32046 115.343 -0.777489 112.353 0.282134 107.954C1.86358 101.388 2.85931 94.675 3.89763 87.9938C4.88271 81.643 6.13935 75.3866 8.0456 69.2193C9.48328 64.5676 10.25 59.7062 11.2671 54.9287C12.1563 50.7437 12.8006 46.5064 13.8815 42.3739C14.8719 38.5928 17.726 36.5894 21.5438 35.7451C23.7376 35.2574 25.9421 34.7015 28.0347 33.9044C31.2242 32.6877 32.6406 30.1023 32.8962 26.8508C32.9334 26.4051 32.8269 25.8701 32.5926 25.4978C31.7034 24.0976 30.942 22.5191 29.7333 21.4492C28.4766 20.3427 28.2477 18.9687 27.7631 17.6157C27.3052 16.3465 26.7727 15.1509 27.6779 13.7664C28.008 13.2629 27.6406 12.3242 27.6193 11.5847C27.5395 8.44867 27.9655 5.42273 30.335 3.09427C33.6416 -0.157179 37.6991 -0.655385 41.9216 0.744836C46.208 2.16603 47.9918 5.58005 48.3432 9.82792C48.4071 10.6093 48.2793 11.4012 48.3432 12.1826C48.4124 13.0112 48.5935 13.8345 48.7319 14.6579C48.7479 14.7418 48.8171 14.831 48.8012 14.9044C48.3539 17.0283 48.1995 19.2624 46.5488 20.9563C46.2506 21.2604 46.027 21.6433 45.7873 21.9999C45.1005 23.012 44.5094 24.1028 43.7214 25.0258C43.0451 25.8125 42.896 26.5624 43.0558 27.5483C43.7373 31.8172 46.5648 33.9096 50.553 34.8693C52.0599 35.2312 53.5774 35.5406 55.0843 35.9129C59.3388 36.967 61.7456 39.8147 62.5763 43.8947C63.7743 49.7998 64.6529 55.7677 65.8882 61.6623C66.6177 65.155 67.885 68.5376 68.705 72.0198C69.8339 76.813 70.8615 81.6377 71.7721 86.4782C73.1831 93.9828 74.4504 101.514 75.8082 109.023C76.1384 110.843 76.1277 112.584 75.1267 114.22C74.3066 115.563 73.5399 116.947 72.6294 118.232C72.3684 118.599 71.639 118.883 71.2023 118.804C70.9041 118.746 70.5634 117.991 70.5634 117.545C70.5634 116.774 70.7444 115.988 70.9574 115.238C71.6709 112.705 71.1757 110.366 70.1534 107.985C69.4611 106.364 68.8594 104.576 68.8115 102.846C68.6358 96.4686 66.671 90.6107 64.2216 84.8053C62.2887 80.2218 60.5262 75.5544 59.03 70.8136C57.5763 66.1986 56.554 61.4525 55.3399 56.7642C55.2867 56.5649 55.2015 56.3761 55.0151 55.8674C54.2004 60.8652 51.7511 65.2861 52.5764 70.1895C53.1994 73.8815 53.9715 77.5682 55.0151 81.1605C56.4581 86.1321 57.5284 91.1509 58.0023 96.2955C58.2845 99.3844 58.7052 102.463 58.8862 105.552C59.2376 111.556 57.8053 117.341 56.4475 123.13C54.8394 130.016 53.1515 136.891 51.8576 143.835C51.4156 146.205 51.8363 148.801 52.2303 151.234C52.8746 155.194 53.0183 159.127 52.7042 163.113C52.0386 171.546 50.0631 179.742 48.1835 187.96C47.4167 191.322 46.6926 194.694 46.0855 198.087C45.5744 200.94 46.2772 203.63 47.6191 206.184C48.7373 208.313 48.29 208.995 45.83 208.995C44.5414 208.995 43.2581 209.005 41.9695 209.016C39.6586 209.037 39.0036 208.512 39.1687 206.268C39.3923 203.179 40.026 200.111 40.1059 197.022C40.2709 190.519 40.1698 184.011 40.2123 177.508C40.2603 169.999 40.452 162.483 40.3774 154.974C40.3401 151.14 39.7118 147.312 39.632 143.478C39.419 133.608 39.3551 123.739 39.2379 113.864C39.2326 113.208 39.4296 112.49 39.2166 111.918C39.0143 111.362 38.4019 110.948 37.9706 110.476C37.518 110.938 37.0441 111.383 36.6341 111.881C36.5223 112.013 36.6075 112.306 36.6075 112.521C36.5862 120.776 36.6501 129.03 36.5117 137.279C36.4424 141.422 35.9685 145.555 35.7236 149.693C35.6118 151.612 35.4148 153.552 35.5852 155.451C36.3945 164.497 35.6544 173.533 35.5852 182.569C35.5585 186.02 35.3828 189.481 35.5745 192.921C35.7875 196.797 36.288 200.657 36.7406 204.516C37.2039 208.481 36.7992 208.99 32.8323 208.984C31.5916 208.984 30.3456 209.047 29.1156 208.932C27.7152 208.801 27.2999 207.936 28.1997 206.866C30.5692 204.034 30.516 200.788 29.8398 197.526C28.3861 190.514 26.7141 183.55 25.2339 176.549C23.8228 169.867 22.8005 163.128 23.1732 156.274C23.2797 154.276 23.5885 152.283 23.9399 150.306C24.5523 146.84 24.2648 143.426 23.4873 140.033C21.629 131.946 19.6855 123.886 17.8804 115.788C16.8847 111.315 16.8314 106.758 17.3053 102.222C17.7686 97.7482 18.1892 93.2538 19.0518 88.8486C19.9198 84.4067 21.3308 80.0645 22.465 75.6698C23.7216 70.7978 23.9985 65.9469 22.1881 61.1117C21.7462 59.9369 21.5864 58.6626 21.2882 57.4354C21.2137 57.126 21.1125 56.8271 21.022 56.5229C20.9102 56.5229 20.7984 56.5124 20.6865 56.5072L20.6812 56.4862Z" fill="#535353"/>
</svg>
